<?xml version="1.0" encoding="UTF-8"?>
<!DOCTYPE svg PUBLIC "-//W3C//DTD SVG 1.1//EN" "http://www.w3.org/Graphics/SVG/1.1/DTD/svg11.dtd">
<!-- Creator: CorelDRAW X7 -->
<svg xmlns="http://www.w3.org/2000/svg" xml:space="preserve" width="10in" height="10in" version="1.1" style="shape-rendering:geometricPrecision; text-rendering:geometricPrecision; image-rendering:optimizeQuality; fill-rule:evenodd; clip-rule:evenodd"
viewBox="0 0 10000 10000"
 xmlns:xlink="http://www.w3.org/1999/xlink"
 data-name="Layer 1">
 <defs>
  <style type="text/css">
   <![CDATA[
    .fil0 {fill:none}
    .fil2 {fill:#2683FF;fill-rule:nonzero}
    .fil1 {fill:#E6E6E6;fill-rule:nonzero}
   ]]>
  </style>
 </defs>
 <g id="Layer_x0020_1">
  <metadata id="CorelCorpID_0Corel-Layer"/>
  <rect class="fil0" x="1250" y="1250" width="7500" height="7500"/>
  <g id="_1966302221728">
   <path class="fil1" d="M5000 1900c1712,0 3100,1388 3100,3100 0,1712 -1388,3100 -3100,3100 -1712,0 -3100,-1388 -3100,-3100 0,-1712 1388,-3100 3100,-3100z"/>
   <path class="fil2" d="M3996 5482c-3,3 -6,6 -10,8 -210,122 -421,244 -633,364 -14,7 -31,6 -46,-1 -54,-35 -116,-55 -180,-58 -217,-6 -349,171 -356,325 -9,180 127,365 348,363 193,-1 340,-156 338,-350 -3,-30 13,-59 41,-71 224,-128 448,-257 672,-388 18,-13 42,-14 62,-4 135,65 289,78 432,35 17,-3 34,-1 49,6 44,19 86,42 130,60 22,6 36,28 33,51 0,350 0,700 0,1051 3,21 -10,41 -30,49 -118,57 -207,204 -183,361 28,183 216,320 397,285 159,-31 264,-140 286,-307 15,-141 -59,-275 -185,-338 -20,-7 -32,-26 -31,-46 1,-340 1,-681 0,-1021 0,-30 14,-36 40,-41 70,-13 140,-26 209,-45 27,-10 58,-9 85,3 150,64 296,53 435,-31 16,-12 38,-13 54,-1 184,107 369,214 555,319 27,13 43,41 40,71 -3,190 147,346 337,349 14,1 28,0 42,-1 204,-22 348,-218 300,-415 -56,-237 -313,-344 -520,-216 -22,14 -38,17 -61,3 -176,-102 -352,-204 -528,-305 -26,-15 -30,-29 -21,-57 53,-179 17,-339 -111,-476 -25,-27 -143,-216 -160,-250 -13,-28 -7,-42 19,-58 268,-153 535,-307 802,-462 17,-13 41,-12 57,2 73,49 162,67 248,51 176,-31 299,-193 282,-370 -17,-200 -212,-349 -408,-306 -172,38 -279,172 -278,348 3,27 -11,52 -35,63 -271,155 -541,311 -811,468 -25,14 -38,12 -58,-7 -123,-120 -283,-195 -455,-213 -58,-8 -58,-7 -58,-68 0,-320 0,-638 -1,-957 0,-44 10,-70 51,-94 149,-87 208,-272 138,-429 -68,-159 -244,-243 -410,-193 -151,45 -235,152 -249,306 -12,120 45,252 181,327 21,11 36,21 36,50 -2,352 -2,703 0,1054 0,28 -13,38 -36,49 -68,34 -141,64 -199,112 -66,56 -129,87 -222,87l-24 0c-23,1 -47,-3 -68,-12 -273,-156 -545,-315 -819,-470 -39,-22 -58,-46 -52,-91 1,-19 -1,-38 -6,-56 -33,-187 -212,-311 -399,-278 -187,34 -311,212 -278,399 33,188 211,313 398,281 45,-8 88,-25 126,-49 19,-15 45,-16 64,-2 206,120 413,238 619,358 36,20 71,41 106,61 -237,254 -264,524 -91,818zm3315 -1524c-4,163 -75,284 -211,366 -23,11 -36,34 -34,59 1,445 1,889 0,1333 -3,24 10,47 31,57 202,113 275,368 163,570 -61,110 -168,187 -292,209 -99,21 -203,2 -289,-51 -28,-17 -47,-14 -72,1 -382,221 -765,442 -1147,662 -24,11 -39,36 -36,62 0,214 -165,400 -371,421 -220,22 -414,-116 -461,-329 -7,-33 -11,-67 -11,-101 2,-20 -9,-39 -27,-48 -388,-223 -776,-447 -1164,-671 -17,-13 -41,-13 -58,0 -198,120 -456,58 -576,-140 -27,-43 -45,-90 -54,-139 -34,-181 39,-348 200,-443 26,-15 37,-30 37,-61 -1,-445 -1,-889 0,-1334 3,-23 -10,-46 -31,-56 -162,-94 -238,-257 -207,-441 30,-180 174,-319 355,-341 96,-16 195,5 277,58 17,12 39,12 55,0 386,-224 773,-447 1161,-669 21,-11 34,-33 32,-57 -2,-234 186,-425 420,-427 6,-1 13,0 19,0 191,5 370,163 397,351 4,17 6,34 6,52 0,52 20,74 60,97 376,215 751,431 1125,649 22,15 50,15 72,0 254,-145 562,-6 625,281 4,26 6,53 6,80z"/>
   <path class="fil2" d="M4566 4670c55,5 82,-14 121,-50 171,-159 373,-208 595,-135 218,73 353,228 398,455 5,40 30,75 66,94 114,65 179,205 157,321 -29,152 -128,256 -268,278 -74,15 -151,2 -215,-37 -30,-18 -53,-16 -84,-3 -194,82 -384,68 -563,-45 -24,-16 -54,-20 -81,-9 -253,83 -516,-61 -580,-313 -73,-289 158,-569 454,-556z"/>
   <path class="fil2" d="M6795 6139c-2,-51 38,-95 90,-97 2,0 4,0 6,0 54,1 98,44 100,97 -3,54 -45,97 -99,100 -54,0 -97,-44 -97,-97 0,-1 0,-2 0,-3z"/>
   <path class="fil2" d="M4904 2870c0,-54 44,-98 99,-98 54,0 98,44 98,98 -1,54 -44,97 -98,99 -54,-1 -97,-45 -99,-99z"/>
   <path class="fil2" d="M3210 6140c1,54 -42,98 -96,98 0,0 -1,0 -1,0 -54,-3 -96,-46 -99,-100 3,-53 47,-96 101,-96 51,-1 94,40 95,92 0,2 0,4 0,6z"/>
   <path class="fil2" d="M5003 7132c53,2 95,46 93,99 -2,54 -46,95 -99,93 -52,-1 -94,-44 -93,-97 0,-52 43,-95 95,-95 2,0 3,0 4,0z"/>
   <path class="fil2" d="M3116 4056c-53,3 -99,-37 -103,-90 -4,-52 36,-98 89,-102 3,0 7,0 10,0 53,-1 97,41 98,94 1,53 -41,97 -94,98z"/>
   <path class="fil2" d="M6890 4056c-53,-1 -96,-45 -95,-98 1,-53 45,-95 98,-94 53,-1 97,41 98,94 1,53 -42,97 -95,98 -2,0 -4,0 -6,0z"/>
  </g>
 </g>
</svg>
